<svg xmlns="http://www.w3.org/2000/svg" version="1.1" xmlns:xlink="http://www.w3.org/1999/xlink" xmlns:svgjs="http://svgjs.dev/svgjs" width="1500" height="1500" viewBox="0 0 1500 1500"><rect width="1500" height="1500" fill="#000000"></rect><g transform="matrix(0.6666666666666666,0,0,0.6666666666666666,249.39393939393938,568.7033425139285)"><svg viewBox="0 0 396 144" data-background-color="#eae5df" preserveAspectRatio="xMidYMid meet" height="545" width="1500" xmlns="http://www.w3.org/2000/svg" xmlns:xlink="http://www.w3.org/1999/xlink"><g id="tight-bounds" transform="matrix(1,0,0,1,0.2400000000000091,-0.1466458403826607)"><svg viewBox="0 0 395.52 144.29329168076532" height="144.29329168076532" width="395.52"><g><svg viewBox="0 0 658.5571135540886 240.25428214629602" height="144.29329168076532" width="395.52"><g transform="matrix(1,0,0,1,0,33.20446301732457)"><svg viewBox="0 0 395.52 173.84535611164688" height="173.84535611164688" width="395.52"><g id="textblocktransform"><svg viewBox="0 0 395.52 173.84535611164688" height="173.84535611164688" width="395.52" id="textblock"><g><svg viewBox="0 0 395.52 96.02607809847198" height="96.02607809847198" width="395.52"><g transform="matrix(1,0,0,1,0,0)"><svg width="395.52" viewBox="2 -35 147.24 35.75" height="96.02607809847198" data-palette-color="#be959f"><g class="wordmark-text-0" data-fill-palette-color="primary" id="text-0"><path d="M2 0L2-0.75 5-1.5 5-23.5 2-24.25 2-25 6.5-25Q9.45-25 11.15-23.1L11.15-23.1Q11.8-22.35 12.25-21.25L12.25-21.25Q13-22.65 13.85-23.5L13.85-23.5Q16.1-25.75 19-25.75L19-25.75Q21.9-25.75 24.1-24.48 26.3-23.2 27.5-21L27.5-21Q28.25-22.45 29.1-23.35L29.1-23.35Q31.4-25.75 34.25-25.75L34.25-25.75Q36.9-25.75 39.03-24.65 41.15-23.55 42.33-21.65 43.5-19.75 43.5-17.5L43.5-17.5 43.5-1.5 46.5-0.75 46.5 0 40 0Q35.5 0 35.5-4.5L35.5-4.5 35.5-17.5Q35.5-20.75 34.5-22.38 33.5-24 32.25-24L32.25-24Q30.8-24 29.3-22L29.3-22Q28.7-21.05 28.25-20L28.25-20 28.25-1.5 31.25-0.75 31.25 0 17.25 0 17.25-0.75 20.25-1.5 20.25-17.5Q20.25-20.75 19.25-22.38 18.25-24 17-24L17-24Q15.55-24 14.05-22L14.05-22Q13.45-21.05 13-20L13-20 13-1.5 16-0.75 16 0 2 0ZM62.75 0.75Q56.55 0.75 53.02-2.78 49.5-6.3 49.5-12.5L49.5-12.5Q49.5-18.7 53.02-22.23 56.55-25.75 62.75-25.75L62.75-25.75Q68.95-25.75 72.47-22.23 76-18.7 76-12.5L76-12.5Q76-6.3 72.47-2.78 68.95 0.75 62.75 0.75L62.75 0.75ZM62.75-0.25Q64.75-0.25 66.12-3.05 67.5-5.85 67.5-12.5L67.5-12.5Q67.5-19.15 66.12-21.95 64.75-24.75 62.75-24.75L62.75-24.75Q60.75-24.75 59.37-21.95 58-19.15 58-12.5L58-12.5Q58-5.85 59.37-3.05 60.75-0.25 62.75-0.25L62.75-0.25ZM92 0.5L79.5-23.5 77-24.25 77-25 83.25-25Q85.84-25 87.37-23.93 88.9-22.85 90-20.75L90-20.75 95.95-9.2 101.5-22.75 97.75-24.25 97.75-25 107-25 107-24.25 103-22.75 93.5 0.5 92 0.5ZM107.99 0L107.99-0.75 110.99-1.5 110.99-23.5 107.99-24.25 107.99-25 114.49-25Q118.99-25 118.99-20.5L118.99-20.5 118.99-1.5 121.99-0.75 121.99 0 107.99 0ZM114.49-28Q112.99-28 111.99-29 110.99-30 110.99-31.5L110.99-31.5Q110.99-33 111.99-34 112.99-35 114.49-35L114.49-35Q115.99-35 116.99-34 117.99-33 117.99-31.5L117.99-31.5Q117.99-30 116.99-29 115.99-28 114.49-28L114.49-28ZM138.49 0.75Q132.09 0.75 128.54-2.78 124.99-6.3 124.99-12.5L124.99-12.5Q124.99-16.55 126.54-19.55 128.09-22.55 130.87-24.15 133.64-25.75 137.24-25.75L137.24-25.75Q140.84-25.75 143.56-24.4 146.29-23.05 147.77-20.78 149.24-18.5 149.24-15.75L149.24-15.75Q149.24-14.5 148.99-13.6L148.99-13.6 148.74-12.75Q146.59-12.3 144.09-12L144.09-12Q138.84-11.25 133.49-11.25L133.49-11.25Q133.49-5.45 135.09-2.98 136.69-0.5 139.49-0.5L139.49-0.5Q141.44-0.5 143.12-1.43 144.79-2.35 145.77-3.88 146.74-5.4 146.74-7L146.74-7 147.99-7Q147.99-5 146.79-3.2 145.59-1.4 143.44-0.33 141.29 0.75 138.49 0.75L138.49 0.75ZM133.49-12.5Q136.69-12.5 138.69-12.75L138.69-12.75Q139.54-12.8 140.49-13L140.49-13Q140.54-13.25 140.74-14.1L140.74-14.1Q140.99-15.35 140.99-16.75L140.99-16.75Q140.99-20.9 139.89-22.83 138.79-24.75 137.24-24.75L137.24-24.75Q133.49-24.75 133.49-12.5L133.49-12.5Z" fill="#ffffff" data-fill-palette-color="primary"></path></g></svg></g></svg></g><g transform="matrix(1,0,0,1,163.31020799999996,118.69553051164687)"><svg viewBox="0 0 232.20979200000002 55.14982560000001" height="55.14982560000001" width="232.20979200000002"><g transform="matrix(1,0,0,1,0,0)"><svg width="232.20979200000002" viewBox="1.5 -40 223.98 53.2" height="55.14982560000001" data-palette-color="#be959f"><path d="M35.8-3.05Q35.8-1.8 36.05-1.18 36.3-0.55 37.2-0.55L37.2-0.55Q37.6-0.55 38.45-0.8L38.45-0.8 38.45-0.05 29.95-0.05 29.95-0.8Q30.8-0.55 31.2-0.55L31.2-0.55Q32-0.55 32.23-1.15 32.45-1.75 32.45-3.05L32.45-3.05 32.45-17.05Q32.45-20.45 30.95-22.13 29.45-23.8 27.1-23.8L27.1-23.8Q25.55-23.8 24.28-22.7 23-21.6 22.28-20 21.55-18.4 21.55-17.05L21.55-17.05 21.6-3Q21.6-1.75 21.85-1.13 22.1-0.5 23-0.5L23-0.5Q23.4-0.5 24.25-0.75L24.25-0.75 24.25 0 16.05 0 16.05-0.75Q16.9-0.5 17.3-0.5L17.3-0.5Q18.1-0.5 18.32-1.1 18.55-1.7 18.55-3L18.55-3 18.55-17Q18.55-20.4 17.15-22.08 15.75-23.75 13.4-23.75L13.4-23.75Q11.1-23.75 9.78-22 8.45-20.25 7.9-17.55L7.9-17.55 7.9-3Q7.9-1.7 8.13-1.1 8.35-0.5 9.15-0.5L9.15-0.5Q9.55-0.5 10.4-0.75L10.4-0.75 10.4 0 1.9 0 1.9-0.75Q2.75-0.5 3.15-0.5L3.15-0.5Q4-0.5 4.28-1.15 4.55-1.8 4.55-3.05L4.55-3.05 4.55-20.95Q3.6-20.55 2.5-20.55L2.5-20.55Q2.2-20.55 1.5-20.65L1.5-20.65 1.5-22 1.95-22Q1.95-21.65 2.33-21.4 2.7-21.15 3.2-21.15L3.2-21.15Q3.9-21.15 4.45-21.7 5-22.25 5.8-23.4L5.8-23.4 6.7-23.4 6.7-19.3 7.55-19.3Q9.55-24.4 13.85-24.4L13.85-24.4Q15.85-24.4 17.65-23.38 19.45-22.35 20.4-20.5L20.4-20.5Q20.75-19.8 20.75-19.3L20.75-19.3 21.25-19.3Q21.55-20.35 22.43-21.55 23.3-22.75 24.63-23.6 25.95-24.45 27.55-24.45L27.55-24.45Q29.45-24.45 31.38-23.48 33.3-22.5 34.55-20.68 35.8-18.85 35.8-16.45L35.8-16.45 35.8-3.05ZM51.4 0.5Q46.1 0.5 43.77-2.88 41.45-6.25 41.45-11.95L41.45-11.95Q41.45-17.2 43.8-20.78 46.15-24.35 51.4-24.35L51.4-24.35Q56.65-24.35 59.02-20.78 61.4-17.2 61.4-11.95L61.4-11.95Q61.4-6.25 59.05-2.88 56.7 0.5 51.4 0.5L51.4 0.5ZM51.4-0.1Q54.8-0.1 56.35-3.38 57.9-6.65 57.9-11.95L57.9-11.95Q57.9-16.9 56.3-20.33 54.7-23.75 51.4-23.75L51.4-23.75Q48.1-23.75 46.52-20.33 44.95-16.9 44.95-11.95L44.95-11.95Q44.95-6.65 46.5-3.38 48.05-0.1 51.4-0.1L51.4-0.1ZM77.4-23.35L85.05-23.35 85.05-22.6Q84.5-22.8 83.95-22.8L83.95-22.8Q82.75-22.8 81.92-22.03 81.1-21.25 80.85-20.45L80.85-20.45 74.4 0 71.6 0 65.5-20.05Q64.9-22.75 63-22.75L63-22.75Q62.45-22.75 61.9-22.6L61.9-22.6 61.9-23.35 70.65-23.35 70.65-22.6Q69.9-22.75 69.4-22.75L69.4-22.75Q68.75-22.75 68.42-22.5 68.1-22.25 68.1-21.85L68.1-21.85Q68.1-21.7 68.2-21.4L68.2-21.4 74-1.4 80.05-20.45Q80.2-21 80.2-21.45L80.2-21.45Q80.2-22.85 78.75-22.85L78.75-22.85Q78.1-22.85 77.4-22.6L77.4-22.6 77.4-23.35ZM88.94-26.6Q88.04-26.6 87.44-27.15 86.84-27.7 86.84-28.55L86.84-28.55Q86.84-29.4 87.44-29.95 88.04-30.5 88.94-30.5L88.94-30.5Q89.84-30.5 90.47-29.93 91.09-29.35 91.09-28.55L91.09-28.55Q91.09-27.7 90.49-27.15 89.89-26.6 88.94-26.6L88.94-26.6ZM84.54-0.75Q85.39-0.5 85.79-0.5L85.79-0.5Q86.69-0.5 86.94-1.13 87.19-1.75 87.19-3L87.19-3 87.19-20.8Q86.44-20.55 85.59-20.55L85.59-20.55Q85.24-20.55 84.54-20.65L84.54-20.65 84.54-22 84.99-22Q84.99-21.65 85.37-21.4 85.74-21.15 86.24-21.15L86.24-21.15Q86.94-21.15 87.49-21.7 88.04-22.25 88.84-23.4L88.84-23.4 90.29-23.4 90.29-3Q90.29-1.7 90.52-1.1 90.74-0.5 91.54-0.5L91.54-0.5Q91.94-0.5 92.79-0.75L92.79-0.75 92.79 0 84.54 0 84.54-0.75ZM105.74 0.5Q100.99 0.5 98.64-2.68 96.29-5.85 96.29-11.95L96.29-11.95Q96.29-15.15 97.29-17.98 98.29-20.8 100.42-22.58 102.54-24.35 105.64-24.35L105.64-24.35Q110.69-24.35 112.84-21.28 114.99-18.2 114.99-13.9L114.99-13.9Q114.99-13.15 114.89-11.95L114.89-11.95 114.84-11.5 99.79-11.5Q99.99-0.3 106.04-0.3L106.04-0.3Q108.74-0.3 110.04-1.95 111.34-3.6 111.34-5.7L111.34-5.7Q111.34-6.55 110.92-6.95 110.49-7.35 109.84-7.35L109.84-7.35Q109.34-7.35 108.97-7.08 108.59-6.8 108.59-6.4L108.59-6.4 108.14-6.4 108.14-7.75 114.49-7.75Q114.64-5.85 113.57-3.95 112.49-2.05 110.44-0.8 108.39 0.45 105.74 0.5L105.74 0.5ZM110.19-12.25Q111.09-12.25 111.27-12.43 111.44-12.6 111.49-13.3L111.49-13.3Q111.54-13.85 111.54-14.95L111.54-14.95Q111.54-18.75 110.14-21.25 108.74-23.75 105.44-23.75L105.44-23.75Q102.24-23.75 101.04-20.6 99.84-17.45 99.79-12.25L99.79-12.25 110.19-12.25ZM150.14-3Q150.14-1.75 150.39-1.13 150.64-0.5 151.54-0.5L151.54-0.5Q151.94-0.5 152.79-0.75L152.79-0.75 152.79 0 144.29 0 144.29-0.75Q145.14-0.5 145.54-0.5L145.54-0.5Q146.34-0.5 146.56-1.1 146.79-1.7 146.79-3L146.79-3 146.79-16.4Q146.79-19.85 145.36-21.8 143.94-23.75 141.64-23.75L141.64-23.75Q139.44-23.75 138.11-22.03 136.79-20.3 136.26-17.95 135.74-15.6 135.74-13.45L135.74-13.45 135.74-3Q135.74-1.7 135.96-1.1 136.19-0.5 136.99-0.5L136.99-0.5Q137.39-0.5 138.24-0.75L138.24-0.75 138.24 0 129.74 0 129.74-0.75Q130.59-0.5 130.99-0.5L130.99-0.5Q131.89-0.5 132.14-1.13 132.39-1.75 132.39-3L132.39-3 132.39-20.75Q131.64-20.5 130.79-20.5L130.79-20.5Q130.44-20.5 129.74-20.6L129.74-20.6 129.74-21.95 130.19-21.95Q130.19-21.6 130.56-21.35 130.94-21.1 131.44-21.1L131.44-21.1Q132.14-21.1 132.69-21.65 133.24-22.2 134.04-23.35L134.04-23.35 134.94-23.35 134.99-19.3 135.69-19.3Q136.59-21.55 138.16-22.98 139.74-24.4 142.09-24.4L142.09-24.4Q143.99-24.4 145.86-23.43 147.74-22.45 148.94-20.63 150.14-18.8 150.14-16.4L150.14-16.4 150.14-3ZM160.18-26.6Q159.28-26.6 158.68-27.15 158.08-27.7 158.08-28.55L158.08-28.55Q158.08-29.4 158.68-29.95 159.28-30.5 160.18-30.5L160.18-30.5Q161.08-30.5 161.71-29.93 162.33-29.35 162.33-28.55L162.33-28.55Q162.33-27.7 161.73-27.15 161.13-26.6 160.18-26.6L160.18-26.6ZM155.78-0.75Q156.63-0.5 157.03-0.5L157.03-0.5Q157.93-0.5 158.18-1.13 158.43-1.75 158.43-3L158.43-3 158.43-20.8Q157.68-20.55 156.83-20.55L156.83-20.55Q156.48-20.55 155.78-20.65L155.78-20.65 155.78-22 156.23-22Q156.23-21.65 156.61-21.4 156.98-21.15 157.48-21.15L157.48-21.15Q158.18-21.15 158.73-21.7 159.28-22.25 160.08-23.4L160.08-23.4 161.53-23.4 161.53-3Q161.53-1.7 161.76-1.1 161.98-0.5 162.78-0.5L162.78-0.5Q163.18-0.5 164.03-0.75L164.03-0.75 164.03 0 155.78 0 155.78-0.75ZM184.18-23.4Q183.43-23.6 182.38-22.45L182.38-22.45Q183.68-21.3 184.33-19.6 184.98-17.9 184.98-16L184.98-16Q184.98-12.3 182.96-10 180.93-7.7 176.68-7.7L176.68-7.7Q173.28-7.7 171.18-9.4L171.18-9.4Q170.08-9.1 169.63-8.22 169.18-7.35 169.18-6.5L169.18-6.5Q169.18-4.1 173.53-4.1L173.53-4.1 178.93-4Q183.18-3.95 185.31-1.68 187.43 0.6 187.43 3.7L187.43 3.7Q187.43 6.15 186.08 8.33 184.73 10.5 182.28 11.85 179.83 13.2 176.68 13.2L176.68 13.2Q174.03 13.2 171.81 12.2 169.58 11.2 168.31 9.53 167.03 7.85 167.03 5.85L167.03 5.85Q167.03 4.45 167.78 3.13 168.53 1.8 170.16 0.9 171.78 0 174.28 0L174.28 0 174.28 0.4Q171.78 0.4 170.93 1.85 170.08 3.3 170.08 5.85L170.08 5.85Q170.08 8.55 171.73 10.43 173.38 12.3 176.68 12.3L176.68 12.3Q180.23 12.3 182.21 10.13 184.18 7.95 184.18 4.05L184.18 4.05Q184.18-1.75 174.18-1.75L174.18-1.75Q167.68-1.75 167.68-5.3L167.68-5.3Q167.68-6.6 168.46-7.95 169.23-9.3 170.78-9.8L170.78-9.8Q168.63-12 168.63-16L168.63-16Q168.63-19.5 170.63-21.93 172.63-24.35 176.68-24.35L176.68-24.35Q179.83-24.35 181.93-22.8L181.93-22.8Q182.58-23.45 183.51-23.88 184.43-24.3 185.28-24.3L185.28-24.3Q185.83-24.3 186.08-24.2L186.08-24.2Q186.83-23.95 187.36-23.38 187.88-22.8 187.88-22.15L187.88-22.15Q187.88-21.65 187.48-21.1L187.48-21.1Q186.98-20.45 186.58-20.45L186.58-20.45Q186.23-20.45 185.98-20.8 185.73-21.15 185.38-21.85L185.38-21.85Q185.03-22.6 184.78-22.98 184.53-23.35 184.18-23.4L184.18-23.4ZM176.68-8.3Q179.33-8.3 180.41-10.35 181.48-12.4 181.48-16L181.48-16Q181.48-19.4 180.38-21.58 179.28-23.75 176.68-23.75L176.68-23.75Q174.13-23.75 173.08-21.58 172.03-19.4 172.03-16L172.03-16Q172.03-12.4 173.06-10.35 174.08-8.3 176.68-8.3L176.68-8.3ZM209.93-3Q209.93-1.75 210.18-1.13 210.43-0.5 211.33-0.5L211.33-0.5Q211.73-0.5 212.58-0.75L212.58-0.75 212.58 0 204.08 0 204.08-0.75Q204.93-0.5 205.33-0.5L205.33-0.5Q206.13-0.5 206.35-1.1 206.58-1.7 206.58-3L206.58-3 206.58-17Q206.58-20.4 205.18-22.08 203.78-23.75 201.43-23.75L201.43-23.75Q199.23-23.75 197.9-22.03 196.58-20.3 196.05-17.95 195.53-15.6 195.53-13.45L195.53-13.45 195.53-3Q195.53-1.7 195.75-1.1 195.98-0.5 196.78-0.5L196.78-0.5Q197.18-0.5 198.03-0.75L198.03-0.75 198.03 0 189.38 0 189.38-0.75Q190.23-0.5 190.63-0.5L190.63-0.5Q191.53-0.5 191.78-1.13 192.03-1.75 192.03-3L192.03-3 192.03-37.4Q191.28-37.15 190.43-37.15L190.43-37.15Q190.08-37.15 189.38-37.25L189.38-37.25 189.38-38.6 189.83-38.6Q189.83-38.25 190.2-38 190.58-37.75 191.08-37.75L191.08-37.75Q191.78-37.75 192.33-38.3 192.88-38.85 193.68-40L193.68-40 194.73-40 194.78-19.3 195.48-19.3Q196.38-21.55 197.95-22.98 199.53-24.4 201.88-24.4L201.88-24.4Q203.78-24.4 205.65-23.43 207.53-22.45 208.73-20.63 209.93-18.8 209.93-16.4L209.93-16.4 209.93-3ZM220.28 0.5Q218.43 0.5 217.9-0.93 217.38-2.35 217.38-5.1L217.38-5.1 217.38-7.5 217.38-22.65 214.08-22.65 214.08-23.4 217.38-23.4 217.38-28.75Q218.43-28.75 218.95-29.45 219.48-30.15 219.48-30.9L219.48-30.9 220.53-30.9 220.48-23.4 224.58-23.4 224.58-22.65 220.48-22.65 220.43-5.05Q220.43-3.05 220.8-2.18 221.18-1.3 222.03-1.3L222.03-1.3Q223.03-1.3 223.68-2.2 224.33-3.1 224.65-4.23 224.98-5.35 224.98-6L224.98-6 225.48-6Q225.48-4.6 224.83-3.08 224.18-1.55 223-0.53 221.83 0.5 220.28 0.5L220.28 0.5Z" opacity="1" transform="matrix(1,0,0,1,0,0)" fill="#ffffff" class="slogan-text-1" data-fill-palette-color="secondary" id="text-1"></path></svg></g></svg></g></svg></g></svg></g><g transform="matrix(1,0,0,1,418.1894524131749,0)"><svg viewBox="0 0 240.36766114091367 240.25428214629602" height="240.25428214629602" width="240.36766114091367"><g><svg xmlns="http://www.w3.org/2000/svg" xmlns:xlink="http://www.w3.org/1999/xlink" version="1.1" x="0" y="0" viewBox="5.059546243556399 5.101923076923075 89.84045375644358 89.79807692307693" enable-background="new 0 0 100 100" xml:space="preserve" height="240.25428214629602" width="240.36766114091367" class="icon-icon-0" data-fill-palette-color="accent" id="icon-0"><g fill="#13472e" data-fill-palette-color="accent"><path d="M73.1 5.8c-1.7-1.1-4.2-0.9-5.7 0.6-1.5 1.5-1.7 3.9-0.5 5.7 4.3 6.4 6.6 14 6.6 21.8 0 21.9-17.8 39.6-39.6 39.6-7.9 0-15.4-2.3-21.8-6.6-1.7-1.2-4.2-0.9-5.7 0.5-1.5 1.5-1.8 3.9-0.6 5.7 9 13.7 24.1 21.8 40.5 21.8 26.8 0 48.6-21.8 48.6-48.6C94.9 30 86.8 14.8 73.1 5.8zM46.3 90.1c-14.2 0-27.3-6.8-35.5-18.2 6.9 4.3 14.8 6.5 23.1 6.5 24.5 0 44.5-19.9 44.5-44.5 0-8.2-2.2-16.2-6.5-23.1C83.3 19 90.1 32.2 90.1 46.3 90.1 70.4 70.4 90.1 46.3 90.1z" fill="#ffffff" data-fill-palette-color="accent"></path><path d="M26.5 30.7l4.4 2.4c1.3 0.7 2.4 1.8 3.1 3.1l2.1 4.1c0.1 0.2 0.5 0.2 0.6 0l2.1-4.1c0.7-1.3 1.7-2.4 3.1-3.1l4.4-2.4c0.2-0.1 0.2-0.5 0-0.6l-4.4-2.4c-1.3-0.7-2.4-1.8-3.1-3.1l-2.1-4.1c-0.1-0.2-0.5-0.2-0.6 0L34 24.6c-0.7 1.3-1.7 2.4-3.1 3.1l-4.4 2.4C26.2 30.2 26.2 30.6 26.5 30.7z" fill="#ffffff" data-fill-palette-color="accent"></path><path d="M10.5 38.9c0.6 0.4 1.2 0.9 1.5 1.5l1.1 2.1c0.1 0.1 0.2 0.1 0.3 0l1.1-2.1c0.3-0.7 0.9-1.2 1.5-1.5l2.3-1.2c0.1-0.1 0.1-0.2 0-0.3l-2.3-1.2c-0.6-0.4-1.2-0.9-1.5-1.5l-1.1-2.1c-0.1-0.1-0.2-0.1-0.3 0L12 34.6c-0.3 0.7-0.9 1.2-1.5 1.5l-2.3 1.2c-0.1 0.1-0.1 0.2 0 0.3L10.5 38.9z" fill="#ffffff" data-fill-palette-color="accent"></path></g></svg></g></svg></g></svg></g><defs></defs></svg><rect width="395.52" height="144.29329168076532" fill="none" stroke="none" visibility="hidden"></rect></g></svg></g></svg>