<svg xmlns="http://www.w3.org/2000/svg" version="1.1" xmlns:xlink="http://www.w3.org/1999/xlink" xmlns:svgjs="http://svgjs.dev/svgjs" width="1500" height="1852" viewBox="0 0 1500 1852"><g transform="matrix(1,0,0,1,-1.400557375170024,0.7497975708502054)"><svg viewBox="0 0 200 247" data-background-color="#000000" preserveAspectRatio="xMidYMid meet" height="1852" width="1500" xmlns="http://www.w3.org/2000/svg" xmlns:xlink="http://www.w3.org/1999/xlink"><g id="tight-bounds" transform="matrix(1,0,0,1,0.1867409833560032,-0.09999999999999432)"><svg viewBox="0 0 199.626518033288 247.2" height="247.2" width="199.626518033288"><g><svg viewBox="0 0 397.4975999999999 492.2262216867138" height="247.2" width="199.626518033288"><g transform="matrix(1,0,0,1,0,269.7421662961752)"><svg viewBox="0 0 397.4975999999999 222.48405539053863" height="222.48405539053863" width="397.4975999999999"><g id="textblocktransform"><svg viewBox="0 0 397.4975999999999 222.48405539053863" height="222.48405539053863" width="397.4975999999999" id="textblock"><g><rect width="397.4975999999999" height="10.476206465149964" x="0" y="128.50970565528678" fill="#ffffff" opacity="1" stroke-width="0" stroke="transparent" fill-opacity="1" class="rect-qz-0" data-fill-palette-color="primary" rx="1%" id="qz-0" data-palette-color="#ffffff"></rect></g><g transform="matrix(1,0,0,1,0.9887999999999693,0)"><svg viewBox="0 0 395.52 116.16862474084311" height="116.16862474084311" width="395.52"><g transform="matrix(1,0,0,1,0,0)"><svg width="395.52" viewBox="1.56 -39.84 141.3 41.5" height="116.16862474084311" data-palette-color="#ffffff"><path d="M27.47-33.89L35.08-35.94Q35.21-35.96 35.31-35.97 35.42-35.99 35.52-35.99L35.52-35.99Q35.96-35.99 36.23-35.71 36.5-35.42 36.6-34.72L36.6-34.72Q36.65-34.28 36.76-33.48 36.87-32.69 37-31.73 37.13-30.76 37.29-29.74 37.45-28.71 37.57-27.84 37.7-26.98 37.79-26.35 37.89-25.73 37.92-25.56L37.92-25.56Q38.45-21.24 38.87-18.63 39.28-16.02 39.45-14.77L39.45-14.77 41.09-1.56 40.84-0.81Q40.8-0.63 40.21-0.39 39.62-0.15 38.79 0.13 37.96 0.42 36.99 0.68 36.01 0.95 35.18 1.17 34.35 1.39 33.78 1.53 33.2 1.66 33.18 1.66L33.18 1.66Q32.59 1.66 32.25 0.81 31.91-0.05 31.69-1.37 31.47-2.69 31.34-4.25 31.2-5.81 31.03-7.25L31.03-7.25Q30.88-8.45 30.76-9.67 30.64-10.89 30.49-12.16L30.49-12.16 29.54-19.29 20.48-2.71Q20.07-2.12 19.65-1.87 19.24-1.61 18.87-1.61L18.87-1.61Q18.33-1.61 18.03-1.93 17.72-2.25 17.6-2.71L17.6-2.71Q17.14-4.25 16.81-5.31 16.48-6.37 16.2-7.25 15.92-8.13 15.67-8.96 15.43-9.79 15.12-10.88 14.82-11.96 14.44-13.44 14.06-14.92 13.53-17.07L13.53-17.07 12.77-13.55 9.25 1.37Q9.18 1.66 8.64 1.66L8.64 1.66Q8.13 1.66 7.24 1.46 6.35 1.27 5.38 0.99 4.42 0.71 3.5 0.4 2.59 0.1 2.05-0.15L2.05-0.15Q1.93-0.2 1.75-0.38 1.56-0.56 1.56-0.95L1.56-0.95Q1.56-1.05 1.64-1.37 1.71-1.68 1.82-2.11 1.93-2.54 2.06-2.98 2.2-3.42 2.32-3.76L2.32-3.76Q2.64-4.59 2.89-5.71 3.15-6.84 3.37-7.98 3.59-9.13 3.77-10.18 3.96-11.23 4.13-11.94L4.13-11.94 7.13-25.95 8.03-29.91Q8.2-30.66 8.36-31.38 8.52-32.1 8.64-32.69 8.76-33.28 8.84-33.64 8.91-34.01 8.91-34.06L8.91-34.06 15.01-35.94Q15.36-35.94 15.61-35.88 15.87-35.82 15.94-35.47L15.94-35.47 20.8-19.85 27.47-33.89ZM57.81 1.27L57.81 1.27Q54.37 1.27 51.77 0.15 49.17-0.98 47.41-2.84 45.65-4.71 44.77-7.14 43.89-9.57 43.89-12.18L43.89-12.18Q43.89-14.79 44.75-17.15 45.6-19.51 47.14-21.37 48.68-23.24 50.83-24.5 52.98-25.76 55.56-26.2L55.56-26.2Q55.95-26.22 55.95-26.37L55.95-26.37Q55.95-26.64 55.89-26.87 55.83-27.1 55.83-27.27L55.83-27.27Q55.83-27.54 55.93-27.64 56.03-27.73 56.15-27.73L56.15-27.73Q60.81-27.73 64.08-26.67 67.36-25.61 69.41-23.78 71.46-21.95 72.39-19.46 73.31-16.97 73.31-14.11L73.31-14.11Q73.31-10.47 72.09-7.62 70.87-4.76 68.76-2.78 66.65-0.81 63.83 0.23 61.01 1.27 57.81 1.27ZM53.29-12.45L53.29-12.45Q53.29-11.13 53.57-9.84 53.85-8.54 54.5-7.5 55.15-6.45 56.2-5.8 57.25-5.15 58.81-5.15L58.81-5.15Q59.93-5.2 60.78-5.65 61.62-6.1 62.23-6.82 62.84-7.54 63.24-8.45 63.64-9.35 63.88-10.31 64.11-11.28 64.21-12.21 64.3-13.13 64.3-13.89L64.3-13.89Q64.3-15.16 63.93-16.38 63.55-17.6 62.81-18.53 62.08-19.46 61-20.03 59.91-20.61 58.49-20.61L58.49-20.61Q57.03-20.61 56.03-19.74 55.03-18.87 54.43-17.6 53.83-16.33 53.56-14.93 53.29-13.53 53.29-12.45ZM93.7-27L93.7-27Q93.79-27.25 94.06-27.25L94.06-27.25Q94.11-27.25 94.16-27.23 94.21-27.22 94.26-27.22L94.26-27.22Q96.09-26.51 98.02-26.06 99.95-25.61 101.85-25.2L101.85-25.2Q102.31-25.1 102.31-24.66L102.31-24.66Q102.31-24.34 102.02-23.68L102.02-23.68 91.96-2.29Q91.77-1.86 91.62-1.59 91.47-1.32 91.33-1.15 91.18-0.98 91.01-0.9 90.84-0.83 90.6-0.78L90.6-0.78Q88.74-0.42 86.84 0.06 84.93 0.54 82.88 1.25L82.88 1.25Q82.83 1.25 82.81 1.26 82.78 1.27 82.76 1.27L82.76 1.27 82.59 1.27Q82.47 1.27 82.39 1.18 82.32 1.1 82.29 1.03L82.29 1.03Q81.93-0.02 81.45-1.68 80.98-3.34 80.41-5.4 79.85-7.45 79.24-9.77 78.63-12.08 78-14.48 77.36-16.87 76.74-19.23 76.12-21.58 75.53-23.68L75.53-23.68Q75.31-24.44 75.31-24.76L75.31-24.76Q75.31-25.1 75.7-25.2L75.7-25.2Q77.61-25.61 79.66-26.06 81.71-26.51 83.54-27.22L83.54-27.22Q83.61-27.25 83.76-27.25L83.76-27.25Q84.08-27.25 84.1-27L84.1-27 87.32-10.6Q87.45-10.89 87.74-11.66 88.03-12.43 88.45-13.5 88.86-14.58 89.36-15.87 89.86-17.16 90.39-18.51 90.91-19.85 91.43-21.18 91.94-22.51 92.39-23.66 92.84-24.8 93.18-25.68 93.53-26.56 93.7-27ZM103.73-10.35L103.73-10.35Q104.05-13.7 104.36-16.97 104.68-20.24 104.92-23.68L104.92-23.68Q104.97-24.49 105.08-24.79 105.19-25.1 105.63-25.2L105.63-25.2Q107.71-25.61 109.98-26.06 112.25-26.51 114.37-27.22L114.37-27.22Q114.45-27.25 114.59-27.25L114.59-27.25Q114.86-27.25 114.86-27.05L114.86-27.05 112.66-3.27Q112.59-2.47 112.49-2.16 112.39-1.86 111.96-1.76L111.96-1.76Q109.88-1.12 107.76-0.34 105.63 0.44 103.26 1.25L103.26 1.25Q103.19 1.27 103.04 1.27L103.04 1.27Q102.78 1.27 102.78 1.03L102.78 1.03Q102.78 1 102.82 0.37 102.87-0.27 102.96-1.27 103.04-2.27 103.14-3.52 103.24-4.76 103.35-6.01 103.46-7.25 103.56-8.4 103.65-9.55 103.73-10.35ZM105.56-29.83L105.56-29.83Q105.63-30.88 105.67-31.45 105.71-32.01 105.73-32.29 105.75-32.57 105.75-32.64 105.75-32.71 105.77-32.75 105.78-32.79 105.79-32.9 105.8-33.01 105.83-33.36 105.85-33.72 105.9-34.4 105.95-35.08 106.05-36.28L106.05-36.28Q106.1-37.08 106.21-37.39 106.32-37.7 106.76-37.79L106.76-37.79Q108.83-38.21 111.1-38.66 113.37-39.11 115.5-39.82L115.5-39.82Q115.57-39.84 115.72-39.84L115.72-39.84Q115.79-39.7 115.91-39.65L115.91-39.65 115.98-39.6 115.45-32.91Q115.37-32.1 115.26-31.79 115.15-31.47 114.74-31.4L114.74-31.4Q112.66-31.01 110.54-30.54 108.42-30.08 106.05-29.61L106.05-29.61Q105.97-29.59 105.83-29.59L105.83-29.59Q105.56-29.59 105.56-29.83ZM132.58-27.25L132.58-27.25Q134.9-27.25 136.79-26.38 138.69-25.51 140.04-24.13 141.4-22.75 142.13-21.04 142.86-19.34 142.86-17.63L142.86-17.63Q142.86-16.11 141.93-14.59 141.01-13.06 139.33-11.84 137.66-10.62 135.32-9.86 132.97-9.11 130.17-9.11L130.17-9.11Q128.7-9.11 127.09-9.4L127.09-9.4Q127.19-8.35 127.7-7.59 128.21-6.84 128.99-6.35 129.78-5.86 130.76-5.63 131.75-5.4 132.8-5.4L132.8-5.4Q133.97-5.4 135.06-5.6 136.15-5.81 137.15-6.15 138.15-6.49 139.08-6.91 140-7.32 140.83-7.74L140.83-7.74Q141.05-7.79 141.21-7.82 141.37-7.86 141.52-7.86L141.52-7.86Q141.52-7.86 141.51-7.47 141.49-7.08 141.49-6.37 141.49-5.66 141.48-4.66 141.47-3.66 141.45-2.44L141.45-2.44Q141.52-2.32 141.54-2.2 141.57-2.08 141.57-2L141.57-2Q141.57-1.71 141.03-1.37 140.49-1.03 139.63-0.66 138.76-0.29 137.65 0.05 136.54 0.39 135.39 0.67 134.24 0.95 133.17 1.11 132.09 1.27 131.29 1.27L131.29 1.27Q128.65 1.27 126.17 0.35 123.7-0.56 121.78-2.27 119.86-3.98 118.72-6.42 117.57-8.86 117.57-11.91L117.57-11.91Q117.57-15.11 118.67-17.91 119.77-20.7 121.76-22.78 123.74-24.85 126.5-26.05 129.26-27.25 132.58-27.25ZM132.29-20.75L132.29-20.75Q131.29-20.75 130.45-20.32 129.6-19.9 128.91-19.1 128.21-18.31 127.7-17.2 127.19-16.09 126.87-14.75L126.87-14.75Q129.38-15.19 131.04-15.67 132.7-16.16 133.71-16.66 134.71-17.16 135.12-17.66 135.54-18.16 135.54-18.63L135.54-18.63Q135.54-19.07 135.21-19.46 134.88-19.85 134.39-20.14 133.9-20.43 133.33-20.59 132.75-20.75 132.29-20.75Z" opacity="1" transform="matrix(1,0,0,1,0,0)" fill="#ffffff" class="wordmark-text-0" data-fill-palette-color="primary" id="text-0"></path></svg></g></svg></g><g transform="matrix(1,0,0,1,0,151.32699303488042)"><svg viewBox="0 0 395.52 71.15706235565818" height="71.15706235565818" width="395.52"><g transform="matrix(1,0,0,1,0,0)"><svg width="395.52" viewBox="-1.5 -37.75 216.5 38.95" height="71.15706235565818" data-palette-color="#ffffff"><path d="M6.75-0.85L-1.5-0.3Q0.7-6.95 2.7-13.35L2.7-13.35Q3.55-16.05 4.45-19 5.35-21.95 6.25-24.85 7.15-27.75 7.93-30.45 8.7-33.15 9.3-35.45L9.3-35.45Q12.05-35.45 14.5-35.75 16.95-36.05 19.8-36.3L19.8-36.3Q19.65-35.2 19.48-33.83 19.3-32.45 19.07-30.95 18.85-29.45 18.6-27.85 18.35-26.25 18-23.75 17.65-21.25 17.05-17.5L17.05-17.5 17.7-17.5Q19.15-21.3 20.1-23.83 21.05-26.35 21.65-27.95 22.25-29.55 22.88-31.08 23.5-32.6 24.08-33.98 24.65-35.35 25.15-36.4L25.15-36.4Q26.4-36.5 27.5-36.65 28.6-36.8 29.7-36.98 30.8-37.15 31.93-37.33 33.05-37.5 34.4-37.75L34.4-37.75Q33.9-34.85 33.45-31.8 33-28.75 32.65-25.73 32.3-22.7 31.98-19.75 31.65-16.8 31.4-14.15L31.4-14.15Q30.8-7.95 30.35-2.05L30.35-2.05 21.65-0.5Q21.65-0.75 21.73-1.85 21.8-2.95 21.93-4.55 22.05-6.15 22.28-8.1 22.5-10.05 22.73-12 22.95-13.95 23.2-15.78 23.45-17.6 23.7-18.9L23.7-18.9 23.25-18.9Q22.55-16.8 21.7-14.48 20.85-12.15 19.98-9.75 19.1-7.35 18.25-5.05 17.4-2.75 16.75-0.65L16.75-0.65Q15-0.6 13.75-0.53 12.5-0.45 10.85-0.35L10.85-0.35 12.45-18.9 11.7-18.9Q11.6-18.25 11.2-16.73 10.8-15.2 10.28-13.23 9.75-11.25 9.15-9.13 8.55-7 8.03-5.18 7.5-3.35 7.15-2.18 6.8-1 6.75-0.85L6.75-0.85ZM58.95-27.05Q58.95-22.95 58.08-19.33 57.2-15.7 55.75-12.68 54.3-9.65 52.38-7.28 50.45-4.9 48.35-3.23 46.25-1.55 44.1-0.68 41.95 0.2 40 0.2L40 0.2Q38.35 0.2 37-0.43 35.65-1.05 34.65-2.27 33.65-3.5 33.08-5.43 32.5-7.35 32.5-10.05L32.5-10.05Q32.5-12.85 33.2-15.95 33.9-19.05 35.1-22.1 36.3-25.15 38.05-27.9 39.8-30.65 41.9-32.77 44-34.9 46.4-36.15 48.8-37.4 51.4-37.4L51.4-37.4Q53.65-37.4 55.13-36.48 56.6-35.55 57.43-34.08 58.25-32.6 58.6-30.75 58.95-28.9 58.95-27.05L58.95-27.05ZM39.95-11.35Q39.95-10.8 40.15-10.2 40.35-9.6 40.7-9.15 41.05-8.7 41.58-8.38 42.1-8.05 42.7-8.05L42.7-8.05Q44.95-8.05 46.7-9.6 48.45-11.15 49.6-13.4 50.75-15.65 51.38-18.2 52-20.75 52-22.85L52-22.85Q52-23.45 51.93-24.15 51.85-24.85 51.63-25.45 51.4-26.05 50.93-26.48 50.45-26.9 49.65-26.9L49.65-26.9Q48.05-26.9 46.7-26.1 45.35-25.3 44.28-23.98 43.2-22.65 42.4-20.98 41.6-19.3 41.03-17.57 40.45-15.85 40.2-14.2 39.95-12.55 39.95-11.35L39.95-11.35ZM71.5-1.5L58.55 0.45Q59.2-6.55 59.75-13.3L59.75-13.3Q60-16.1 60.23-19.2 60.45-22.3 60.63-25.33 60.8-28.35 60.9-31.18 61-34 61.05-36.35L61.05-36.35Q62.25-36.35 63.63-36.4 65-36.45 66.13-36.5 67.25-36.55 68.05-36.63 68.85-36.7 68.85-36.7L68.85-36.7Q68.3-30.9 67.9-27.18 67.5-23.45 67.28-21.13 67.05-18.8 66.88-16.65 66.7-14.5 66.5-12.65 66.3-10.8 66.15-9.5L66.15-9.5 67.05-9.5 72.65-36.1Q74-36.15 75.4-36.25L75.4-36.25Q76.65-36.35 78.03-36.4 79.4-36.45 80.55-36.6L80.55-36.6Q79.85-34.4 79.13-31.75 78.4-29.1 77.63-26.25 76.85-23.4 76.13-20.45 75.4-17.5 74.7-14.75L74.7-14.75Q73.1-8.3 71.5-1.5L71.5-1.5ZM83.05-1Q82.6-1 81.28-0.88 79.95-0.75 78.55-0.58 77.15-0.4 76.03-0.25 74.9-0.1 74.8-0.05L74.8-0.05Q75.3-2.2 75.83-4.83 76.35-7.45 76.9-10.33 77.45-13.2 77.95-16.15 78.45-19.1 78.9-21.85L78.9-21.85Q79.95-28.25 81-35L81-35 88.8-36.25Q87.65-29.55 86.55-23.1L86.55-23.1Q86.1-20.35 85.63-17.4 85.15-14.45 84.68-11.55 84.2-8.65 83.8-5.93 83.4-3.2 83.05-1L83.05-1ZM101.2-2.45L85.05 0.05 91.6-35.5 107.4-36.85Q107.05-35.75 106.8-34.6L106.8-34.6Q106.55-33.65 106.33-32.63 106.1-31.6 105.95-30.8L105.95-30.8Q105.45-30.75 104.53-30.73 103.6-30.7 102.55-30.68 101.5-30.65 100.43-30.65 99.35-30.65 98.55-30.65L98.55-30.65 96.8-21.7Q98.35-21.8 99.7-21.85L99.7-21.85Q100.8-21.9 101.95-21.9 103.1-21.9 103.65-21.95L103.65-21.95Q103.45-20.55 103.28-19.2 103.1-17.85 102.85-16.45L102.85-16.45Q102.35-16.4 101.23-16.38 100.1-16.35 98.95-16.3L98.95-16.3Q97.65-16.25 96.1-16.2L96.1-16.2 94.4-7 101.7-8.15 101.2-2.45ZM119-1.45L111.7 0.25Q113.2-6.95 114.55-13.7L114.55-13.7Q115.05-16.6 115.63-19.7 116.2-22.8 116.7-25.83 117.2-28.85 117.6-31.63 118-34.4 118.2-36.65L118.2-36.65Q118.85-36.6 119.3-36.6 119.75-36.6 120.35-36.6L120.35-36.6Q121.05-36.6 122.05-36.63 123.05-36.65 124.05-36.7 125.05-36.75 126.2-36.8L126.2-36.8Q126.9-33.3 127.45-30.05L127.45-30.05Q128-27.2 128.57-24.2 129.15-21.2 129.6-19.1L129.6-19.1Q129.8-20.1 130.05-21.43 130.3-22.75 130.6-24.2 130.9-25.65 131.18-27.13 131.45-28.6 131.75-30.05L131.75-30.05Q132.45-33.3 133.2-36.75L133.2-36.75 139.3-37.5Q137.6-29.85 136.3-23L136.3-23Q135.7-20.05 135.13-17.03 134.55-14 134.05-11.23 133.55-8.45 133.2-6.08 132.85-3.7 132.65-2.1L132.65-2.1Q132.5-2.1 131.47-1.88 130.45-1.65 129.13-1.35 127.8-1.05 126.48-0.75 125.15-0.45 124.5-0.2L124.5-0.2Q124.2-4.2 123.85-7.8L123.85-7.8Q123.7-9.35 123.53-10.98 123.35-12.6 123.15-14.1 122.95-15.6 122.75-16.9 122.55-18.2 122.35-19.15L122.35-19.15Q122.2-18.2 121.95-16.95 121.7-15.7 121.45-14.3 121.2-12.9 120.95-11.38 120.7-9.85 120.4-8.45L120.4-8.45Q119.75-5.1 119-1.45L119-1.45ZM142.55-1Q142.1-1 140.78-0.88 139.45-0.75 138.05-0.58 136.65-0.4 135.53-0.25 134.4-0.1 134.3-0.05L134.3-0.05Q134.8-2.2 135.33-4.83 135.85-7.45 136.4-10.33 136.95-13.2 137.45-16.15 137.95-19.1 138.4-21.85L138.4-21.85Q139.45-28.25 140.5-35L140.5-35 148.3-36.25Q147.15-29.55 146.05-23.1L146.05-23.1Q145.6-20.35 145.13-17.4 144.65-14.45 144.18-11.55 143.7-8.65 143.3-5.93 142.9-3.2 142.55-1L142.55-1ZM171.35-19.05Q171-13.95 169.35-10.18 167.7-6.4 165.38-3.85 163.05-1.3 160.38-0.05 157.7 1.2 155.3 1.2L155.3 1.2Q153.45 1.2 151.78 0.4 150.1-0.4 148.88-2.02 147.65-3.65 146.95-6.1 146.25-8.55 146.25-11.85L146.25-11.85Q146.25-18.3 148.1-23.1 149.95-27.9 152.78-31.1 155.6-34.3 158.83-35.85 162.05-37.4 164.85-37.4L164.85-37.4Q166.85-37.4 168.33-36.7 169.8-36 170.75-34.83 171.7-33.65 172.13-32.08 172.55-30.5 172.55-28.75L172.55-28.75 165.7-27.45Q165.25-29.45 164.5-30.3 163.75-31.15 162.8-31.15L162.8-31.15Q161.55-31.15 160.05-29.38 158.55-27.6 157.25-24.8 155.95-22 155.05-18.65 154.15-15.3 154.05-12.05L154.05-12.05Q154.05-8.95 154.97-7.63 155.9-6.3 157.35-6.3L157.35-6.3Q158.35-6.3 159.43-6.8 160.5-7.3 161.35-8.22 162.2-9.15 162.78-10.38 163.35-11.6 163.4-13.05L163.4-13.05 158.05-12.25 159-17.2Q161.35-17.5 163.6-17.8L163.6-17.8Q165.5-18.05 167.63-18.4 169.75-18.75 171.35-19.05L171.35-19.05ZM177.2-1.5L169.5 0.1Q170.9-6.9 172.2-13.55L172.2-13.55Q172.7-16.4 173.25-19.48 173.8-22.55 174.28-25.55 174.75-28.55 175.18-31.38 175.6-34.2 175.85-36.5L175.85-36.5Q177-36.45 177.98-36.38 178.95-36.3 179.9-36.25 180.85-36.2 181.83-36.18 182.8-36.15 183.95-36.15L183.95-36.15Q183.1-32.6 182.28-29.05 181.45-25.5 180.75-21.9L180.75-21.9 185.7-22.45Q186.4-26 186.95-29.33 187.5-32.65 188.4-36.2L188.4-36.2Q189.55-36.4 190.95-36.52 192.35-36.65 193.55-36.75 194.75-36.85 195.58-36.93 196.4-37 196.4-37L196.4-37Q195.7-34.75 195.08-32.08 194.45-29.4 193.85-26.53 193.25-23.65 192.7-20.7 192.15-17.75 191.7-15.1L191.7-15.1Q190.6-8.75 189.65-2.1L189.65-2.1 181.85-1.2Q182.5-4.2 183-7.05L183-7.05Q183.5-9.45 184.03-12.05 184.55-14.65 184.85-16.5L184.85-16.5 180-16.05Q179.65-14.15 179.18-11.65 178.7-9.15 178.3-6.9L178.3-6.9Q177.75-4.2 177.2-1.5L177.2-1.5ZM204.65-1.35L195.65 0.05Q196.8-5.45 197.85-10.8L197.85-10.8Q198.3-13.05 198.75-15.5 199.2-17.95 199.63-20.33 200.05-22.7 200.38-24.93 200.7-27.15 200.95-29L200.95-29Q199.8-29.15 198.63-29.1 197.45-29.05 196.3-29.4L196.3-29.4Q196.35-30.2 196.35-31.25 196.35-32.3 196.4-33.35L196.4-33.35Q196.45-34.5 196.5-35.8L196.5-35.8Q197.8-35.7 199.1-35.65 200.4-35.6 201.7-35.6L201.7-35.6Q204.25-35.6 206.63-35.73 209-35.85 211.03-36.02 213.05-36.2 215-36.45L215-36.45 214.45-33.75Q214.2-32.6 213.98-31.4 213.75-30.2 213.55-29.35L213.55-29.35Q212.45-29.05 211.33-28.93 210.2-28.8 209.1-28.6L209.1-28.6Q208.75-26.9 208.35-24.83 207.95-22.75 207.58-20.53 207.2-18.3 206.85-16 206.5-13.7 206.15-11.6L206.15-11.6Q205.35-6.65 204.65-1.35L204.65-1.35Z" opacity="1" transform="matrix(1,0,0,1,0,0)" fill="#ffffff" class="slogan-text-1" data-fill-palette-color="secondary" id="text-1"></path></svg></g></svg></g></svg></g></svg></g><g transform="matrix(1,0,0,1,75.92204159999999,0)"><svg viewBox="0 0 245.65351679999995 242.31754204185592" height="242.31754204185592" width="245.65351679999995"><g><svg xmlns="http://www.w3.org/2000/svg" xmlns:xlink="http://www.w3.org/1999/xlink" version="1.1" x="0" y="0" viewBox="0 1.358 200 197.284" enable-background="new 0 0 200 200" xml:space="preserve" height="242.31754204185592" width="245.65351679999995" class="icon-icon-0" data-fill-palette-color="accent" id="icon-0"><g fill="#ffffff" data-fill-palette-color="accent"><path fill="#ffffff" d="M188.487 198.642H17.864c-2.434 0-4.722-0.948-6.444-2.671-1.722-1.717-2.67-4.006-2.67-6.443V75.414h188.852v114.114c0 2.438-0.949 4.728-2.673 6.446C193.21 197.693 190.921 198.642 188.487 198.642zM15.313 81.976v107.551c0 0.682 0.265 1.322 0.746 1.801 0.484 0.484 1.125 0.751 1.806 0.751h170.623c0.681 0 1.321-0.267 1.805-0.748 0.482-0.482 0.747-1.122 0.747-1.804V81.976H15.313z" data-fill-palette-color="accent"></path><polygon fill="#ffffff" points="38.183,81.976 8.75,81.976 8.75,62.653 15.313,62.653 15.313,75.414 35.464,75.414 56.974,53.903    35.464,32.394 15.313,32.394 15.313,45.154 8.75,45.154 8.75,25.831 38.183,25.831 66.255,53.903  " data-fill-palette-color="accent"></polygon><g fill="#ffffff" data-fill-palette-color="accent"><polygon fill="#ffffff" points="197.602,78.695 191.039,78.695 191.039,57.185 61.614,57.185 61.614,50.623 197.602,50.623   " data-fill-palette-color="accent"></polygon><g fill="#ffffff" data-fill-palette-color="accent"><rect x="56.48" y="63.018" transform="matrix(0.7071 0.7071 -0.7071 0.7071 68.5623 -32.9144)" fill="#ffffff" width="35.058" height="6.562" data-fill-palette-color="accent"></rect><rect x="83.46" y="63.018" transform="matrix(0.7071 0.7071 -0.7071 0.7071 76.4619 -51.9921)" fill="#ffffff" width="35.059" height="6.562" data-fill-palette-color="accent"></rect><rect x="110.437" y="63.018" transform="matrix(0.7071 0.7071 -0.7071 0.7071 84.3613 -71.068)" fill="#ffffff" width="35.06" height="6.562" data-fill-palette-color="accent"></rect><rect x="137.418" y="63.018" transform="matrix(0.7071 0.7071 -0.7071 0.7071 92.2728 -90.1494)" fill="#ffffff" width="35.058" height="6.562" data-fill-palette-color="accent"></rect><rect x="164.397" y="63.018" transform="matrix(0.7071 0.7071 -0.7071 0.7071 100.1724 -109.226)" fill="#ffffff" width="35.058" height="6.562" data-fill-palette-color="accent"></rect></g></g><g fill="#ffffff" data-fill-palette-color="accent"><polygon fill="#ffffff" points="59.056,54.09 58.056,47.604 192.515,26.862 189.737,8.844 37.324,32.355 36.323,25.87     195.224,1.358 200,32.348   " data-fill-palette-color="accent"></polygon><g fill="#ffffff" data-fill-palette-color="accent"><rect x="72.184" y="18.164" transform="matrix(0.8066 0.5911 -0.5911 0.8066 35.6958 -37.7049)" fill="#ffffff" width="6.563" height="35.061" data-fill-palette-color="accent"></rect><rect x="98.848" y="14.053" transform="matrix(0.8066 0.5911 -0.5911 0.8066 38.4226 -54.2618)" fill="#ffffff" width="6.563" height="35.06" data-fill-palette-color="accent"></rect><rect x="125.51" y="9.938" transform="matrix(0.8067 0.591 -0.591 0.8067 41.1338 -70.8072)" fill="#ffffff" width="6.564" height="35.059" data-fill-palette-color="accent"></rect><rect x="152.174" y="5.825" transform="matrix(0.8067 0.591 -0.591 0.8067 43.8582 -87.3611)" fill="#ffffff" width="6.564" height="35.058" data-fill-palette-color="accent"></rect><rect x="178.838" y="1.711" transform="matrix(0.8065 0.5912 -0.5912 0.8065 46.6148 -103.95)" fill="#ffffff" width="6.562" height="35.061" data-fill-palette-color="accent"></rect></g></g><g fill="#ffffff" data-fill-palette-color="accent"><path fill="#ffffff" d="M12.031 65.935C5.397 65.935 0 60.537 0 53.903c0-6.633 5.397-12.031 12.031-12.031 6.633 0 12.031 5.397 12.031 12.031C24.062 60.537 18.665 65.935 12.031 65.935zM12.031 48.435c-3.015 0-5.469 2.454-5.469 5.468 0 3.015 2.454 5.469 5.469 5.469 3.016 0 5.469-2.454 5.469-5.469C17.5 50.889 15.047 48.435 12.031 48.435z" data-fill-palette-color="accent"></path><rect x="20.781" y="50.623" fill="#ffffff" width="11.667" height="6.562" data-fill-palette-color="accent"></rect></g><g fill="#ffffff" data-fill-palette-color="accent"><rect x="28.073" y="172.392" fill="#ffffff" width="150.207" height="6.563" data-fill-palette-color="accent"></rect><rect x="28.073" y="95.101" fill="#ffffff" width="150.207" height="6.562" data-fill-palette-color="accent"></rect><rect x="28.073" y="120.86" fill="#ffffff" width="150.207" height="6.563" data-fill-palette-color="accent"></rect><rect x="124.934" y="124.142" fill="#ffffff" width="6.563" height="51.531" data-fill-palette-color="accent"></rect><rect x="99.895" y="98.382" fill="#ffffff" width="6.563" height="25.759" data-fill-palette-color="accent"></rect><rect x="74.863" y="124.142" fill="#ffffff" width="6.562" height="51.531" data-fill-palette-color="accent"></rect></g></g></svg></g></svg></g><g></g></svg></g><defs></defs></svg><rect width="199.626518033288" height="247.2" fill="none" stroke="none" visibility="hidden"></rect></g></svg></g></svg>